<?xml version="1.0" encoding="UTF-8"?>
<svg xmlns="http://www.w3.org/2000/svg" xmlns:xlink="http://www.w3.org/1999/xlink" width="800pt" height="263pt" viewBox="0 0 800 263" version="1.1">
<g id="surface1">
<path style=" stroke:none;fill-rule:nonzero;fill:rgb(35.293579%,34.901428%,35.68573%);fill-opacity:1;" d="M 331.675781 66.898438 C 332.863281 67.789063 333.757813 68.851563 334.613281 69.9375 C 338.523438 74.871094 341.945313 80.136719 345.042969 85.609375 C 345.351563 86.152344 346.0625 86.839844 345.519531 87.390625 C 344.921875 87.992188 344.179688 87.304688 343.578125 86.980469 C 342.894531 86.617188 342.28125 86.125 341.617188 85.722656 C 341.351563 85.5625 340.996094 85.304688 340.726563 85.628906 C 340.585938 85.800781 340.59375 86.160156 340.636719 86.414063 C 340.914063 87.988281 341.671875 89.351563 342.664063 90.566406 C 344.386719 92.679688 346.234375 94.691406 347.902344 96.84375 C 353.292969 103.804688 352.378906 115.042969 345.980469 121.167969 C 344.042969 123.027344 341.511719 123.816406 339.164063 124.9375 C 338.394531 125.300781 337.09375 125.417969 337.105469 126.289063 C 337.121094 127.019531 338.421875 127.097656 339.179688 127.382813 C 341.15625 128.125 343.183594 128.726563 345.066406 129.703125 C 352.6875 133.652344 355.191406 141.160156 351.417969 148.851563 C 348.839844 154.109375 344.78125 158.023438 339.878906 161.050781 C 338.382813 161.980469 337.789063 162.964844 337.699219 164.695313 C 337.453125 169.511719 337.800781 174.234375 338.980469 178.914063 C 341.257813 187.929688 350.625 192.375 358.96875 190.015625 C 365.890625 188.058594 371.3125 183.808594 376.175781 178.714844 C 384.820313 169.664063 392.980469 160.144531 402.152344 151.609375 C 412.742188 141.757813 424.960938 134.691406 438.980469 130.925781 C 442.492188 129.984375 446.101563 129.65625 449.699219 130.707031 C 453.757813 131.894531 456.480469 135.214844 456.78125 139.441406 C 456.898438 141.148438 457.289063 142.847656 456.898438 144.585938 C 456.609375 145.875 455.953125 146.273438 454.738281 145.785156 C 454.585938 145.722656 454.414063 145.695313 454.269531 145.617188 C 445.644531 140.894531 437.210938 142.816406 429 146.628906 C 418.230469 151.625 409.128906 158.996094 400.648438 167.203125 C 394.40625 173.246094 389.097656 180.15625 382.835938 186.183594 C 377.804688 191.023438 372.484375 195.472656 366.03125 198.335938 C 356.984375 202.34375 349.371094 200.890625 342.433594 193.90625 C 337.0625 188.5 334.957031 181.832031 334.835938 174.382813 C 334.777344 170.882813 335.003906 167.398438 335.523438 163.75 C 306.808594 177.535156 276.046875 182.257813 245.152344 186.425781 C 245.046875 186.214844 244.941406 186 244.839844 185.789063 C 246.351563 182.976563 248.089844 180.257813 249.3125 177.324219 C 250.585938 174.277344 252.582031 173.390625 255.800781 173.007813 C 281.726563 169.925781 306.996094 164.105469 331.160156 153.996094 C 334.285156 152.691406 337.332031 151.199219 340.375 149.710938 C 342.3125 148.761719 344.183594 147.550781 344.128906 145.066406 C 344.074219 142.695313 342.097656 141.738281 340.3125 140.855469 C 333.320313 137.386719 325.847656 135.515625 318.167969 134.402344 C 314.480469 133.867188 310.78125 133.441406 307.082031 132.996094 C 305.953125 132.859375 305.335938 132.527344 305.515625 131.148438 C 305.867188 128.511719 305.875 125.832031 306.460938 123.210938 C 306.675781 122.242188 307.152344 121.84375 308.136719 121.734375 C 318.617188 120.613281 328.847656 118.359375 338.847656 115.035156 C 340.589844 114.457031 342.300781 113.800781 343.832031 112.765625 C 345.375 111.722656 345.792969 110.550781 345.277344 108.742188 C 344.652344 106.542969 343.230469 104.820313 341.832031 103.089844 C 339.765625 100.542969 337.324219 98.324219 335.417969 95.625 C 332.726563 91.8125 331.347656 87.519531 330.566406 82.984375 C 330.320313 81.554688 330.097656 80.121094 329.15625 78.941406 C 328.847656 78.554688 328.804688 78.128906 328.894531 77.679688 C 329.578125 74.304688 330.175781 70.910156 331.25 67.625 C 331.328125 67.382813 331.511719 67.171875 331.675781 66.898438 "/>
<path style=" stroke:none;fill-rule:nonzero;fill:rgb(35.293579%,34.901428%,35.68573%);fill-opacity:1;" d="M 563.582031 87.664063 C 563.796875 87.859375 564.050781 88.074219 564.28125 88.304688 C 569.664063 93.707031 575.035156 99.121094 580.4375 104.5 C 581.058594 105.113281 581.085938 105.472656 580.449219 106.089844 C 577.976563 108.496094 575.527344 110.933594 573.132813 113.414063 C 572.449219 114.117188 572.054688 114.039063 571.414063 113.378906 C 569.089844 110.984375 566.679688 108.671875 564.363281 106.265625 C 563.65625 105.527344 563.25 105.5 562.527344 106.253906 C 560.253906 108.625 557.9375 110.957031 555.558594 113.214844 C 554.722656 114.007813 554.902344 114.421875 555.621094 115.136719 C 560.886719 120.34375 566.125 125.574219 571.316406 130.847656 C 572.121094 131.664063 572.53125 131.523438 573.253906 130.792969 C 578.421875 125.570313 583.652344 120.414063 588.804688 115.171875 C 589.71875 114.242188 590.199219 114.230469 591.128906 115.167969 C 599.199219 123.316406 607.308594 131.421875 615.449219 139.496094 C 616.339844 140.378906 616.460938 140.851563 615.492188 141.800781 C 610.28125 146.902344 605.183594 152.117188 599.972656 157.21875 C 599.003906 158.171875 599.089844 158.671875 600.011719 159.542969 C 602.277344 161.679688 604.492188 163.878906 606.621094 166.152344 C 607.457031 167.046875 607.886719 166.910156 608.667969 166.113281 C 613.828125 160.886719 619.0625 155.726563 624.21875 150.492188 C 625.054688 149.640625 625.519531 149.503906 626.410156 150.449219 C 628.65625 152.839844 631.007813 155.140625 633.367188 157.421875 C 634.054688 158.085938 634.226563 158.464844 633.4375 159.246094 C 625.113281 167.53125 616.824219 175.851563 608.558594 184.191406 C 607.816406 184.9375 607.410156 184.890625 606.699219 184.175781 C 598.417969 175.847656 590.117188 167.542969 581.785156 159.269531 C 581.035156 158.523438 581.09375 158.152344 581.8125 157.445313 C 587.089844 152.25 592.296875 146.988281 597.582031 141.808594 C 598.507813 140.90625 598.574219 140.398438 597.597656 139.488281 C 595.398438 137.4375 593.273438 135.308594 591.222656 133.113281 C 590.3125 132.140625 589.816406 132.015625 588.796875 133.058594 C 583.707031 138.277344 578.488281 143.378906 573.382813 148.582031 C 572.488281 149.492188 572.046875 149.4375 571.179688 148.5625 C 565.078125 142.382813 558.929688 136.253906 552.777344 130.121094 C 547.8125 125.171875 542.847656 120.222656 537.835938 115.316406 C 536.980469 114.484375 536.839844 114.027344 537.773438 113.097656 C 546.039063 104.914063 554.246094 96.671875 562.476563 88.453125 C 562.78125 88.148438 563.019531 87.730469 563.582031 87.664063 "/>
<path style=" stroke:none;fill-rule:nonzero;fill:rgb(35.293579%,34.901428%,35.68573%);fill-opacity:1;" d="M 697.777344 119.285156 C 697.316406 118.855469 696.867188 118.351563 696.335938 117.96875 C 695.785156 117.566406 695.589844 118.222656 695.296875 118.46875 C 694.789063 118.902344 694.355469 119.414063 693.871094 119.867188 C 691.476563 122.097656 691.496094 122.074219 693.808594 124.402344 C 694.292969 124.894531 695.3125 125.1875 694.566406 126.394531 C 694.179688 127.015625 695.277344 127.476563 695.726563 127.976563 C 696.207031 128.511719 696.503906 127.921875 696.78125 127.648438 C 697.972656 126.488281 699.144531 125.300781 700.316406 124.121094 C 701.375 123.050781 701.304688 122.25 699.992188 121.621094 C 698.910156 121.097656 698.640625 122.289063 698.09375 122.761719 C 697.371094 123.386719 696.949219 123.953125 695.972656 122.96875 C 694.949219 121.9375 695.863281 121.601563 696.347656 121.023438 C 696.800781 120.488281 697.472656 120.140625 697.777344 119.285156 M 678.351563 149.511719 C 678.015625 149.207031 677.722656 148.960938 677.453125 148.691406 C 675.085938 146.332031 672.769531 143.921875 670.339844 141.632813 C 669.460938 140.800781 669.738281 140.382813 670.4375 139.691406 C 675.617188 134.558594 680.734375 129.363281 685.941406 124.257813 C 686.933594 123.289063 686.9375 122.804688 685.949219 121.820313 C 660.253906 96.1875 634.605469 70.507813 608.910156 44.878906 C 607.792969 43.765625 607.652344 43.179688 608.882813 42.070313 C 611.109375 40.058594 613.214844 37.902344 615.261719 35.707031 C 616.179688 34.726563 616.679688 34.617188 617.695313 35.660156 C 622.3125 40.40625 627.03125 45.054688 631.714844 49.738281 C 655.6875 73.707031 679.652344 97.683594 703.648438 121.628906 C 704.664063 122.640625 704.855469 123.171875 703.714844 124.292969 C 695.589844 132.304688 687.550781 140.402344 679.476563 148.46875 C 679.132813 148.816406 678.757813 149.136719 678.351563 149.511719 "/>
<path style=" stroke:none;fill-rule:nonzero;fill:rgb(35.293579%,34.901428%,35.68573%);fill-opacity:1;" d="M 669.542969 122.894531 C 669.410156 123.503906 668.945313 123.765625 668.601563 124.105469 C 663.441406 129.257813 658.292969 134.417969 653.085938 139.523438 C 652.191406 140.402344 652.0625 140.890625 653.042969 141.847656 C 658.261719 146.9375 663.382813 152.128906 668.578125 157.242188 C 669.394531 158.042969 669.636719 158.476563 668.667969 159.425781 C 660.378906 167.589844 652.148438 175.808594 643.929688 184.035156 C 643.257813 184.703125 642.890625 184.910156 642.121094 184.101563 C 639.742188 181.601563 637.28125 179.179688 634.808594 176.773438 C 634.171875 176.152344 634.238281 175.84375 634.855469 175.234375 C 640.089844 170.074219 645.246094 164.84375 650.496094 159.703125 C 651.496094 158.722656 651.644531 158.214844 650.546875 157.136719 C 642.542969 149.242188 634.652344 141.230469 626.636719 133.355469 C 625.335938 132.074219 625.480469 131.414063 626.703125 130.292969 C 628.878906 128.304688 630.972656 126.214844 632.957031 124.035156 C 633.949219 122.945313 634.484375 123.132813 635.394531 124.097656 C 637.5625 126.410156 639.882813 128.582031 642.085938 130.863281 C 642.742188 131.546875 643.113281 131.722656 643.871094 130.921875 C 646.128906 128.539063 648.449219 126.210938 650.835938 123.957031 C 651.695313 123.144531 651.519531 122.707031 650.78125 121.996094 C 648.421875 119.710938 646.152344 117.335938 643.78125 115.0625 C 643.019531 114.332031 643.082031 113.914063 643.808594 113.210938 C 646.25 110.855469 648.648438 108.449219 651.007813 106.007813 C 651.6875 105.308594 652.0625 105.378906 652.714844 106.035156 C 658.050781 111.402344 663.421875 116.734375 668.78125 122.078125 C 669.054688 122.347656 669.304688 122.636719 669.542969 122.894531 "/>
<path style=" stroke:none;fill-rule:nonzero;fill:rgb(35.293579%,34.901428%,35.68573%);fill-opacity:1;" d="M 58.511719 124.128906 C 60.652344 125.246094 62.484375 126.777344 64.273438 128.371094 C 80.453125 142.773438 99.160156 152.800781 119.425781 160.097656 C 136.59375 166.277344 154.300781 170.183594 172.375 172.511719 C 175.246094 172.882813 175.253906 172.867188 173.710938 175.367188 C 172.042969 178.0625 170.347656 180.742188 168.710938 183.453125 C 168.328125 184.089844 167.984375 184.414063 167.148438 184.296875 C 143.738281 180.976563 120.773438 176.007813 99.308594 165.65625 C 91.636719 161.953125 84.175781 157.855469 78.011719 151.808594 C 72.894531 146.796875 68.695313 141.054688 64.828125 135.0625 C 62.566406 131.566406 60.261719 128.097656 58.308594 124.410156 C 58.378906 124.316406 58.445313 124.222656 58.511719 124.128906 "/>
<path style=" stroke:none;fill-rule:nonzero;fill:rgb(35.293579%,34.901428%,35.68573%);fill-opacity:1;" d="M 563.582031 158.449219 C 563.914063 158.761719 564.28125 159.097656 564.632813 159.449219 C 578.480469 173.296875 592.347656 187.128906 606.148438 201.023438 C 607.371094 202.253906 607.988281 202.257813 609.1875 201.023438 C 614.191406 195.878906 619.324219 190.863281 624.367188 185.753906 C 625.121094 184.988281 625.535156 184.960938 626.289063 185.75 C 628.597656 188.160156 630.976563 190.503906 633.367188 192.832031 C 633.980469 193.429688 634.207031 193.769531 633.464844 194.507813 C 625.097656 202.816406 616.757813 211.160156 608.441406 219.527344 C 607.730469 220.242188 607.394531 220.085938 606.769531 219.460938 C 589.675781 202.332031 572.5625 185.21875 555.429688 168.125 C 554.734375 167.429688 554.597656 167.050781 555.382813 166.300781 C 557.832031 163.957031 560.195313 161.519531 562.601563 159.125 C 562.871094 158.859375 563.085938 158.503906 563.582031 158.449219 "/>
<path style=" stroke:none;fill-rule:nonzero;fill:rgb(35.293579%,34.901428%,35.68573%);fill-opacity:1;" d="M 469.746094 199.441406 C 470.332031 196.273438 470.972656 193.121094 471.484375 189.945313 C 472.53125 183.472656 472.164063 176.964844 471.730469 170.476563 C 471.085938 160.71875 470.285156 150.96875 469.53125 141.21875 C 468.847656 132.34375 467.566406 123.542969 466.328125 114.738281 C 464.824219 104.0625 463.683594 93.339844 462.453125 82.628906 C 461.21875 71.847656 461.066406 61.007813 460.503906 50.1875 C 460.445313 49.082031 460.398438 47.9375 460.089844 46.886719 C 459.316406 44.269531 460.140625 42.078125 461.640625 40.011719 C 462.542969 38.761719 463.464844 37.523438 464.511719 36.101563 C 466.890625 41.261719 469.167969 46.230469 471.472656 51.183594 C 473.394531 55.324219 474.6875 59.691406 476.09375 64.015625 C 476.210938 64.375 476.203125 64.78125 476.210938 65.167969 C 476.222656 65.699219 476.058594 66.210938 475.554688 66.421875 C 474.988281 66.660156 474.613281 66.222656 474.328125 65.804688 C 473.484375 64.566406 472.699219 63.285156 471.828125 62.066406 C 471.292969 61.3125 470.753906 60.367188 469.597656 60.660156 C 468.402344 60.960938 468.011719 61.996094 467.84375 63.070313 C 467.4375 65.632813 467.898438 68.164063 468.144531 70.707031 C 469.972656 89.414063 472.914063 107.96875 475.578125 126.558594 C 477.898438 142.730469 478.519531 158.988281 478.015625 175.296875 C 477.835938 181.152344 477.046875 186.921875 474.8125 192.402344 C 473.695313 195.152344 472.222656 197.660156 469.855469 199.550781 Z M 469.746094 199.441406 "/>
<path style=" stroke:none;fill-rule:nonzero;fill:rgb(35.293579%,34.901428%,35.68573%);fill-opacity:1;" d="M 366.804688 37.75 C 370.601563 46.730469 374.964844 55.195313 377.332031 64.449219 C 377.441406 64.886719 377.527344 65.308594 377.394531 65.761719 C 377.28125 66.144531 377.1875 66.558594 376.769531 66.683594 C 376.335938 66.808594 376.015625 66.511719 375.800781 66.183594 C 375.042969 65.019531 374.347656 63.8125 373.558594 62.667969 C 373.039063 61.914063 372.550781 60.925781 371.363281 61.246094 C 370.289063 61.53125 370.082031 62.492188 369.871094 63.445313 C 369.417969 65.507813 369.789063 67.546875 369.988281 69.585938 C 371.691406 86.851563 374.027344 104.035156 376.589844 121.1875 C 378.082031 131.183594 378.769531 141.183594 377.660156 151.265625 C 377.222656 155.246094 376.667969 159.207031 375.828125 163.121094 C 374.980469 167.070313 372.859375 170.378906 370.277344 173.53125 C 370.460938 172.738281 370.660156 171.949219 370.828125 171.152344 C 371 170.335938 371.148438 169.519531 371.292969 168.695313 C 372.839844 159.851563 372.4375 150.96875 371.796875 142.082031 C 370.523438 124.324219 367.4375 106.773438 365.683594 89.070313 C 364.628906 78.390625 363.558594 67.714844 363.523438 56.960938 C 363.511719 53.695313 363.355469 50.40625 362.65625 47.175781 C 362.324219 45.644531 362.648438 44.171875 363.464844 42.851563 C 364.488281 41.199219 365.589844 39.597656 366.804688 37.75 "/>
<path style=" stroke:none;fill-rule:nonzero;fill:rgb(35.293579%,34.901428%,35.68573%);fill-opacity:1;" d="M 625.289063 114.148438 C 625.066406 114.410156 624.898438 114.636719 624.707031 114.828125 C 622.191406 117.351563 619.640625 119.835938 617.175781 122.402344 C 616.332031 123.285156 615.980469 122.625 615.484375 122.132813 C 610.449219 117.09375 605.414063 112.058594 600.378906 107.023438 C 591.445313 98.09375 582.550781 89.132813 573.550781 80.269531 C 572.289063 79.027344 572.445313 78.425781 573.617188 77.34375 C 575.90625 75.234375 578.082031 72.996094 580.234375 70.746094 C 580.949219 69.992188 581.320313 70.039063 582.042969 70.761719 C 596.140625 84.90625 610.269531 99.023438 624.394531 113.148438 C 624.699219 113.457031 624.976563 113.800781 625.289063 114.148438 "/>
<path style=" stroke:none;fill-rule:nonzero;fill:rgb(7.450867%,70.588684%,72.549438%);fill-opacity:1;" d="M 432.382813 108.664063 C 431.929688 108.644531 431.769531 108.320313 431.554688 108.082031 C 427.453125 103.476563 423.363281 98.859375 419.246094 94.265625 C 418.757813 93.722656 418.757813 93.414063 419.324219 92.945313 C 424.117188 88.972656 428.898438 84.988281 433.65625 80.980469 C 434.316406 80.425781 434.664063 80.640625 435.144531 81.183594 C 439.1875 85.765625 443.25 90.332031 447.3125 94.894531 C 447.730469 95.363281 447.972656 95.71875 447.335938 96.246094 C 442.503906 100.253906 437.691406 104.285156 432.871094 108.308594 C 432.703125 108.449219 432.519531 108.566406 432.382813 108.664063 "/>
<path style=" stroke:none;fill-rule:nonzero;fill:rgb(7.450867%,70.588684%,72.549438%);fill-opacity:1;" d="M 196.507813 164.351563 C 196.71875 164.65625 196.882813 164.945313 197.101563 165.191406 C 201.117188 169.726563 205.125 174.269531 209.171875 178.773438 C 209.796875 179.472656 209.800781 179.859375 209.054688 180.472656 C 204.375 184.324219 199.722656 188.203125 195.097656 192.113281 C 194.386719 192.710938 193.972656 192.699219 193.355469 191.996094 C 189.363281 187.4375 185.351563 182.90625 181.304688 178.398438 C 180.691406 177.714844 180.824219 177.332031 181.449219 176.816406 C 186.195313 172.878906 190.929688 168.921875 195.667969 164.972656 C 195.878906 164.800781 196.105469 164.648438 196.507813 164.351563 "/>
<path style=" stroke:none;fill-rule:nonzero;fill:rgb(7.450867%,70.588684%,72.549438%);fill-opacity:1;" d="M 431.113281 72.417969 C 431.011719 72.9375 430.632813 73.117188 430.34375 73.355469 C 425.699219 77.246094 421.039063 81.117188 416.40625 85.019531 C 415.785156 85.539063 415.410156 85.625 414.816406 84.949219 C 410.789063 80.355469 406.734375 75.78125 402.648438 71.238281 C 402.03125 70.558594 402.15625 70.21875 402.785156 69.695313 C 407.496094 65.800781 412.1875 61.882813 416.875 57.953125 C 417.421875 57.492188 417.8125 57.332031 418.382813 57.980469 C 422.460938 62.609375 426.578125 67.203125 430.675781 71.816406 C 430.851563 72.015625 430.992188 72.25 431.113281 72.417969 "/>
<path style=" stroke:none;fill-rule:nonzero;fill:rgb(7.450867%,70.588684%,72.549438%);fill-opacity:1;" d="M 240.6875 179.109375 C 240.660156 179.597656 240.328125 179.746094 240.085938 179.949219 C 235.351563 183.910156 230.605469 187.851563 225.894531 191.832031 C 225.25 192.378906 224.894531 192.253906 224.40625 191.703125 C 220.328125 187.074219 216.25 182.453125 212.136719 177.855469 C 211.617188 177.273438 211.726563 176.988281 212.261719 176.542969 C 217.054688 172.570313 221.839844 168.585938 226.605469 164.578125 C 227.152344 164.117188 227.480469 164.132813 227.957031 164.671875 C 232.03125 169.300781 236.128906 173.90625 240.222656 178.523438 C 240.402344 178.730469 240.5625 178.949219 240.6875 179.109375 "/>
<path style=" stroke:none;fill-rule:nonzero;fill:rgb(7.450867%,70.588684%,72.549438%);fill-opacity:1;" d="M 401.09375 109.226563 C 400.894531 108.929688 400.738281 108.625 400.519531 108.378906 C 396.496094 103.851563 392.472656 99.316406 388.425781 94.8125 C 387.832031 94.152344 387.890625 93.757813 388.558594 93.203125 C 393.269531 89.304688 397.964844 85.386719 402.640625 81.445313 C 403.210938 80.964844 403.558594 80.839844 404.121094 81.480469 C 408.15625 86.074219 412.230469 90.632813 416.289063 95.199219 C 416.726563 95.6875 417.050781 96.082031 416.324219 96.679688 C 411.523438 100.644531 406.753906 104.648438 401.96875 108.632813 C 401.765625 108.804688 401.527344 108.9375 401.09375 109.226563 "/>
<path style=" stroke:none;fill-rule:nonzero;fill:rgb(35.293579%,34.901428%,35.68573%);fill-opacity:1;" d="M 262.871094 203.207031 C 263.292969 201.347656 263.644531 199.847656 263.96875 198.335938 C 264.175781 197.359375 265.074219 197.484375 265.699219 197.304688 C 279.773438 193.242188 293.859375 189.210938 307.945313 185.175781 C 313.425781 183.609375 318.90625 182.035156 324.671875 180.382813 C 324.25 182.277344 323.902344 183.9375 323.507813 185.585938 C 323.339844 186.285156 322.625 186.203125 322.132813 186.34375 C 308.3125 190.296875 294.484375 194.230469 280.65625 198.160156 C 274.847656 199.8125 269.035156 201.457031 262.871094 203.207031 "/>
<path style=" stroke:none;fill-rule:nonzero;fill:rgb(7.450867%,70.588684%,72.549438%);fill-opacity:1;" d="M 293.785156 81.734375 C 292.496094 81 291.210938 80.457031 290.152344 79.535156 C 288.046875 77.695313 287.390625 75.378906 288.703125 72.949219 C 291.089844 68.535156 294.492188 64.933594 298.472656 61.929688 C 299.96875 60.796875 301.78125 60.625 303.457031 61.824219 C 305.144531 63.027344 305.085938 64.757813 304.707031 66.496094 C 304.433594 67.742188 303.859375 68.894531 303.265625 70.03125 C 302.914063 70.703125 302.5625 70.804688 302 70.292969 C 301.675781 69.992188 301.296875 69.75 300.949219 69.46875 C 298.242188 67.289063 297.285156 67.308594 294.613281 69.597656 C 292.410156 71.488281 292.441406 71.460938 294.5 73.578125 C 297.09375 76.242188 300.046875 76.832031 303.464844 75.394531 C 306.589844 74.085938 309.398438 72.183594 312.566406 70.570313 C 313.128906 73.117188 312.335938 75.078125 310.527344 76.601563 C 309.34375 77.597656 308 78.414063 306.6875 79.242188 C 300.90625 82.890625 295.117188 86.527344 289.3125 90.136719 C 288.644531 90.550781 287.773438 91.480469 287.128906 90.863281 C 286.46875 90.230469 287.1875 89.191406 287.589844 88.4375 C 288.78125 86.199219 290.480469 84.371094 292.464844 82.800781 C 292.886719 82.464844 293.300781 82.125 293.785156 81.734375 "/>
<path style=" stroke:none;fill-rule:nonzero;fill:rgb(7.450867%,70.588684%,72.549438%);fill-opacity:1;" d="M 455.949219 190.160156 C 455.03125 189.457031 454.117188 188.824219 453.28125 188.097656 C 451.949219 186.933594 450.664063 186.957031 449.195313 187.890625 C 445.585938 190.1875 445.519531 191.445313 448.953125 194.007813 C 451.148438 195.648438 453.488281 195.875 456.035156 194.960938 C 458.773438 193.972656 461.191406 192.378906 463.730469 191.011719 C 464.359375 190.671875 464.988281 190.332031 465.71875 189.9375 C 466.261719 192 465.769531 193.675781 464.527344 195.167969 C 463.808594 196.027344 462.90625 196.6875 461.964844 197.28125 C 455.472656 201.363281 448.988281 205.449219 442.476563 209.496094 C 441.820313 209.902344 440.953125 210.851563 440.324219 210.246094 C 439.660156 209.605469 440.40625 208.578125 440.800781 207.8125 C 442.230469 205.035156 444.472656 202.976563 447.054688 201.066406 C 445.796875 200.375 444.585938 199.859375 443.558594 199.035156 C 441.316406 197.226563 440.589844 194.722656 441.953125 192.207031 C 444.292969 187.902344 447.632813 184.390625 451.460938 181.386719 C 453.207031 180.019531 455.316406 180.109375 456.742188 181.1875 C 458.132813 182.238281 458.496094 183.886719 457.808594 186.203125 C 457.398438 187.585938 456.855469 188.914063 455.949219 190.160156 "/>
<path style=" stroke:none;fill-rule:nonzero;fill:rgb(35.293579%,34.901428%,35.68573%);fill-opacity:1;" d="M 337.457031 61.195313 C 336.5 58.851563 335.585938 56.484375 334.566406 54.160156 C 333.675781 52.121094 332.632813 50.160156 330.976563 48.605469 C 329.882813 47.578125 328.65625 47.191406 327.15625 47.582031 C 324.566406 48.261719 321.621094 45.753906 321.972656 43.144531 C 322.210938 41.339844 322.351563 39.28125 324.386719 38.542969 C 326.429688 37.804688 327.84375 39.269531 329.171875 40.546875 C 332.347656 43.601563 334.472656 47.359375 336.226563 51.355469 C 336.441406 51.84375 336.675781 52.324219 337.089844 53.207031 C 337.617188 49.039063 338.070313 45.285156 338.578125 41.535156 C 338.832031 39.65625 339.34375 37.835938 340.3125 36.1875 C 341.539063 34.097656 343.457031 33.25 345.484375 33.847656 C 347.273438 34.371094 348.226563 36.066406 348.101563 38.53125 C 348.082031 38.917969 348.019531 39.304688 347.960938 39.6875 C 347.585938 41.996094 347.585938 41.996094 345.609375 40.808594 C 343.082031 39.289063 341.648438 39.835938 341.128906 42.773438 C 340.292969 47.472656 339.667969 52.207031 338.890625 56.914063 C 338.652344 58.367188 338.203125 59.789063 337.847656 61.226563 C 337.71875 61.21875 337.589844 61.207031 337.457031 61.195313 "/>
<path style=" stroke:none;fill-rule:nonzero;fill:rgb(7.450867%,70.588684%,72.549438%);fill-opacity:1;" d="M 598.84375 52.253906 C 599.121094 52.511719 599.371094 52.71875 599.597656 52.949219 C 602.039063 55.382813 604.449219 57.84375 606.925781 60.238281 C 607.628906 60.921875 607.527344 61.328125 606.878906 61.957031 C 604.414063 64.363281 601.972656 66.796875 599.574219 69.269531 C 598.957031 69.902344 598.597656 69.886719 597.992188 69.265625 C 595.585938 66.796875 593.15625 64.351563 590.679688 61.957031 C 589.960938 61.265625 590.097656 60.871094 590.734375 60.246094 C 593.203125 57.839844 595.617188 55.386719 598.058594 52.953125 C 598.289063 52.71875 598.546875 52.515625 598.84375 52.253906 "/>
<path style=" stroke:none;fill-rule:nonzero;fill:rgb(7.450867%,70.588684%,72.549438%);fill-opacity:1;" d="M 616.496094 69.929688 C 616.765625 70.164063 617.015625 70.367188 617.238281 70.589844 C 619.714844 73.058594 622.171875 75.546875 624.671875 77.988281 C 625.300781 78.601563 625.261719 78.996094 624.65625 79.585938 C 622.15625 82.03125 619.671875 84.492188 617.242188 87.003906 C 616.578125 87.695313 616.222656 87.5 615.664063 86.929688 C 613.253906 84.472656 610.808594 82.054688 608.375 79.621094 C 607.9375 79.1875 607.441406 78.839844 608.144531 78.15625 C 610.757813 75.59375 613.332031 72.984375 615.925781 70.398438 C 616.074219 70.246094 616.257813 70.125 616.496094 69.929688 "/>
<path style=" stroke:none;fill-rule:nonzero;fill:rgb(7.450867%,70.588684%,72.549438%);fill-opacity:1;" d="M 643 96.460938 C 642.792969 96.726563 642.617188 96.996094 642.394531 97.222656 C 639.886719 99.738281 637.351563 102.226563 634.875 104.769531 C 634.253906 105.410156 633.917969 105.1875 633.414063 104.679688 C 630.960938 102.1875 628.5 99.707031 625.992188 97.269531 C 625.351563 96.640625 625.429688 96.253906 626.027344 95.667969 C 628.523438 93.222656 630.984375 90.742188 633.449219 88.261719 C 633.871094 87.839844 634.183594 87.496094 634.785156 88.109375 C 637.347656 90.726563 639.949219 93.300781 642.535156 95.894531 C 642.691406 96.050781 642.816406 96.234375 643 96.460938 "/>
<path style=" stroke:none;fill-rule:nonzero;fill:rgb(7.450867%,70.588684%,72.549438%);fill-opacity:1;" d="M 554.621094 149.523438 C 554.390625 149.78125 554.1875 150.027344 553.964844 150.25 C 551.492188 152.726563 549.003906 155.179688 546.5625 157.683594 C 545.949219 158.308594 545.566406 158.273438 544.980469 157.671875 C 542.535156 155.171875 540.070313 152.691406 537.558594 150.257813 C 536.886719 149.601563 537.039063 149.246094 537.617188 148.675781 C 540.078125 146.269531 542.5 143.820313 544.929688 141.386719 C 545.367188 140.945313 545.710938 140.464844 546.394531 141.164063 C 548.953125 143.78125 551.5625 146.355469 554.148438 148.949219 C 554.304688 149.101563 554.429688 149.285156 554.621094 149.523438 "/>
<path style=" stroke:none;fill-rule:nonzero;fill:rgb(7.450867%,70.588684%,72.549438%);fill-opacity:1;" d="M 536.871094 131.855469 C 536.671875 132.082031 536.507813 132.292969 536.316406 132.488281 C 533.804688 135.003906 531.273438 137.5 528.792969 140.042969 C 528.21875 140.636719 527.867188 140.5625 527.335938 140.019531 C 524.84375 137.488281 522.335938 134.96875 519.792969 132.484375 C 519.234375 131.9375 519.363281 131.644531 519.84375 131.171875 C 522.375 128.675781 524.878906 126.148438 527.394531 123.644531 C 527.722656 123.320313 527.988281 122.789063 528.582031 123.386719 C 531.195313 126.039063 533.835938 128.660156 536.460938 131.296875 C 536.609375 131.449219 536.71875 131.648438 536.871094 131.855469 "/>
<path style=" stroke:none;fill-rule:nonzero;fill:rgb(35.293579%,34.901428%,35.68573%);fill-opacity:1;" d="M 412.753906 176.59375 C 411.03125 180.109375 409.121094 183.53125 407.613281 187.148438 C 406.078125 190.839844 404.523438 194.53125 404.320313 198.597656 C 404.246094 200.035156 404.074219 201.636719 405.605469 202.464844 C 407.230469 203.34375 408.835938 202.9375 410.292969 201.886719 C 411.269531 201.183594 412.234375 200.472656 413.351563 199.898438 C 411.902344 202.871094 410.527344 205.90625 407.824219 207.957031 C 406.441406 209.003906 404.753906 209.671875 402.988281 208.8125 C 400.917969 207.808594 400.167969 205.917969 399.992188 203.765625 C 399.644531 199.546875 400.898438 195.648438 402.496094 191.832031 C 404.898438 186.085938 408.660156 181.238281 412.753906 176.59375 "/>
<path style=" stroke:none;fill-rule:nonzero;fill:rgb(35.293579%,34.901428%,35.68573%);fill-opacity:1;" d="M 436.371094 172.082031 C 436.4375 167.855469 435.78125 164.097656 436.378906 160.339844 C 436.535156 159.34375 436.785156 158.386719 437.285156 157.507813 C 438.089844 156.085938 439.308594 155.492188 440.917969 155.757813 C 442.40625 156.007813 442.984375 157.128906 443.316406 158.421875 C 443.425781 158.847656 443.433594 159.300781 443.4375 159.742188 C 443.464844 161.898438 443.445313 161.90625 441.472656 161.15625 C 439.492188 160.40625 438.542969 161.011719 438.382813 163.164063 C 438.054688 167.597656 438.6875 172.046875 438.109375 176.472656 C 438.023438 177.121094 438.09375 177.796875 437.65625 178.519531 C 436.558594 176.660156 435.542969 174.890625 434.472656 173.15625 C 433.597656 171.734375 432.597656 170.402344 431.261719 169.359375 C 430.179688 168.515625 429.09375 168.207031 427.71875 168.816406 C 426.035156 169.5625 423.574219 168.105469 423.230469 166.3125 C 423.101563 165.652344 423.113281 164.996094 423.226563 164.328125 C 423.695313 161.628906 425.265625 160.863281 427.632813 162.289063 C 430.898438 164.261719 433.207031 167.171875 435.25 170.316406 C 435.546875 170.773438 435.835938 171.234375 436.371094 172.082031 "/>
<path style=" stroke:none;fill-rule:nonzero;fill:rgb(35.293579%,34.901428%,35.68573%);fill-opacity:1;" d="M 467.300781 199.859375 C 468.417969 202.453125 467.605469 204.007813 465.289063 205.507813 C 459.410156 209.316406 453.746094 213.449219 447.992188 217.445313 C 447.59375 217.726563 447.167969 217.96875 446.582031 218.339844 C 446.429688 217.226563 446.3125 216.265625 446.15625 215.308594 C 446.066406 214.738281 446.285156 214.386719 446.75 214.0625 C 453.5 209.355469 460.242188 204.636719 466.988281 199.921875 C 467.070313 199.867188 467.195313 199.878906 467.300781 199.859375 "/>
<path style=" stroke:none;fill-rule:nonzero;fill:rgb(7.450867%,70.588684%,72.549438%);fill-opacity:1;" d="M 617.640625 148.304688 C 616.800781 149.230469 616.402344 149.621094 616.0625 150.0625 C 615.636719 150.605469 616.226563 150.828125 616.476563 151.136719 C 616.71875 151.4375 616.996094 151.722656 617.296875 151.960938 C 618.15625 152.628906 618.308594 153.164063 617.421875 154.066406 C 616.539063 154.96875 616.101563 154.609375 615.449219 153.921875 C 614.265625 152.671875 613.011719 151.484375 611.804688 150.253906 C 611.527344 149.96875 610.957031 149.632813 611.507813 149.199219 C 612.066406 148.761719 612.398438 147.519531 613.207031 148.019531 C 614.136719 148.601563 614.359375 147.972656 614.808594 147.578125 C 615.710938 146.789063 616.371094 145.203125 617.457031 145.3125 C 618.359375 145.40625 619.128906 146.796875 619.953125 147.613281 C 620.230469 147.890625 620.488281 148.183594 620.785156 148.4375 C 621.515625 149.0625 621.996094 149.523438 620.996094 150.5 C 620.003906 151.460938 619.492188 151.027344 618.910156 150.257813 C 618.46875 149.679688 618.113281 149.039063 617.640625 148.304688 "/>
<path style=" stroke:none;fill-rule:nonzero;fill:rgb(35.293579%,34.901428%,35.68573%);fill-opacity:1;" d="M 57.941406 124.132813 C 58.132813 123.96875 58.324219 124.003906 58.511719 124.132813 C 58.445313 124.222656 58.378906 124.316406 58.308594 124.410156 L 57.945313 124.101563 Z M 57.941406 124.132813 "/>
<path style=" stroke:none;fill-rule:nonzero;fill:rgb(35.293579%,34.901428%,35.68573%);fill-opacity:1;" d="M 469.855469 199.546875 C 469.777344 199.617188 469.703125 199.683594 469.625 199.75 C 469.667969 199.648438 469.707031 199.542969 469.75 199.441406 C 469.75 199.441406 469.855469 199.546875 469.855469 199.546875 "/>
<path style=" stroke:none;fill-rule:nonzero;fill:rgb(35.293579%,34.901428%,35.68573%);fill-opacity:1;" d="M 57.945313 124.101563 L 57.96875 124.03125 C 57.96875 124.03125 57.945313 124.128906 57.945313 124.128906 C 57.941406 124.132813 57.945313 124.101563 57.945313 124.101563 "/>
<path style=" stroke:none;fill-rule:nonzero;fill:rgb(7.450867%,70.588684%,72.549438%);fill-opacity:1;" d="M 697.777344 119.285156 C 697.472656 120.140625 696.800781 120.488281 696.347656 121.023438 C 695.863281 121.601563 694.949219 121.9375 695.972656 122.96875 C 696.949219 123.953125 697.371094 123.386719 698.09375 122.761719 C 698.640625 122.289063 698.910156 121.097656 699.992188 121.621094 C 701.304688 122.25 701.375 123.050781 700.316406 124.121094 C 699.144531 125.300781 697.972656 126.488281 696.78125 127.648438 C 696.503906 127.921875 696.207031 128.511719 695.726563 127.976563 C 695.277344 127.476563 694.179688 127.015625 694.566406 126.394531 C 695.3125 125.1875 694.292969 124.894531 693.808594 124.402344 C 691.496094 122.074219 691.476563 122.097656 693.871094 119.867188 C 694.355469 119.414063 694.789063 118.902344 695.296875 118.46875 C 695.589844 118.222656 695.785156 117.566406 696.335938 117.96875 C 696.867188 118.351563 697.316406 118.855469 697.777344 119.285156 "/>
</g>
</svg>
